<svg width="183" height="60" xmlns="http://www.w3.org/2000/svg" preserveAspectRatio="xMidYMid meet" version="1.0">

 <g>
  <title>Layer 1</title>
  <g id="svg_1" fill="#000000" transform="translate(0.000000,60.000000) scale(0.100000,-0.100000)">
   <path id="svg_2" d="m510,530c-11,-11 -20,-28 -20,-38c0,-24 31,-52 58,-52c47,0 69,61 34,93c-25,22 -48,21 -72,-3z"/>
   <path id="svg_3" d="m1027,532c-33,-37 -11,-92 37,-92c26,0 56,29 56,53c0,23 -35,57 -58,57c-11,0 -26,-8 -35,-18z"/>
   <path id="svg_4" d="m50,455c0,-24 -5,-35 -15,-35c-11,0 -15,-11 -15,-40c0,-29 4,-40 15,-40c12,0 15,-16 15,-85c0,-78 2,-88 25,-110c13,-14 37,-26 52,-26c15,-1 38,-3 51,-4c19,-2 22,2 22,36c0,31 -4,39 -18,39c-31,0 -42,22 -42,87l0,63l30,0c28,0 30,2 30,40c0,38 -2,40 -30,40c-28,0 -30,3 -30,35c0,35 0,35 -45,35c-45,0 -45,0 -45,-35z"/>
   <path id="svg_5" d="m270,264l0,-155l43,3l42,3l5,93c5,101 17,122 67,122c21,0 23,5 23,45c0,39 -3,45 -20,45c-12,0 -32,-12 -45,-26l-25,-27l0,27c0,24 -3,26 -45,26l-45,0l0,-156z"/>
   <path id="svg_6" d="m502,268l3,-153l43,-1l42,-1l0,153l0,154l-45,0l-46,0l3,-152z"/>
   <path id="svg_7" d="m640,413c0,-5 24,-73 53,-153l52,-145l60,0l60,0l52,145c29,80 52,148 53,153c0,4 -22,7 -48,7l-48,0l-34,-112l-35,-113l-34,113l-35,112l-48,0c-26,0 -48,-3 -48,-7z"/>
   <path id="svg_8" d="m1020,264l0,-155l43,3l42,3l3,153l3,152l-46,0l-45,0l0,-156z"/>
   <path id="svg_9" d="m1229,393c-102,-86 -66,-256 59,-279c27,-5 46,-2 73,13c37,20 37,20 42,1c4,-16 13,-19 44,-16l38,3l3,153l3,152l-46,0c-33,0 -45,-4 -45,-15c0,-19 -9,-19 -34,0c-33,25 -100,19 -137,-12zm137,-61c16,-11 34,-48 34,-72c0,-27 -43,-70 -70,-70c-51,0 -81,90 -43,132c16,18 59,24 79,10z"/>
   <path id="svg_10" d="m1584,386c-19,-19 -34,-44 -34,-56c0,-36 49,-75 113,-89c44,-10 57,-17 57,-31c0,-26 -37,-36 -59,-16c-16,14 -111,24 -111,11c0,-16 26,-57 44,-69c55,-35 147,-31 191,10c22,20 26,31 23,67c-3,37 -7,44 -38,59c-19,10 -55,23 -80,30c-52,15 -61,41 -16,46c19,2 32,-2 38,-12c13,-22 98,-23 98,0c0,50 -54,84 -136,84c-50,0 -59,-3 -90,-34z"/>
  </g>
 </g>
</svg>